# xmcd CD database file
#
# Track frame offsets:
#	150
#	29495
#	46670
#	68172
#	88990
#	109065
#	130140
#	150560
#	172132
#	192862
#	214065
#	228992
#
# Disc length: 3356 seconds
#
# Revision: 0
# Processed by: cddbd v1.5PL3 Copyright (c) Steve Scherf et al.
# Submitted via: CDex 1.51
#
DISCID=a20d1a0c
DTITLE=Varios - Las Estrellas del Caribe2-cd2
DYEAR=1999
DGENRE=Salsa
TTITLE0=Manolito y su Trabuco-Llegó la música cubana
TTITLE1=Fania all Stars-Ella fue
TTITLE2=Mayelin-Recaditos
TTITLE3=Roberto Blades-El casco
TTITLE4=Caracas Latin Brother's-La maraquita
TTITLE5=Edgar Joel-En las nubes
TTITLE6=Sin Fronteras-Decirle que la amo
TTITLE7=Luis Deseda-Luis Deseda mix2
TTITLE8=Celia Cruza-Así cantaba papá
TTITLE9=Jossie Esteba,Patrulla15-Sólo se que fue en marzo
TTITLE10=La Lupe-Guajira pa'ti
TTITLE11=El Gran combo de Puerto Rico-Y no hago más ná
EXTD=YEAR: 1999
EXTT0=
EXTT1=
EXTT2=
EXTT3=
EXTT4=
EXTT5=
EXTT6=
EXTT7=
EXTT8=
EXTT9=
EXTT10=
EXTT11=
PLAYORDER=
